# xmcd CD database file
# Copyright (C) 1993-1998 Ti Kan
# 
# Track frame offsets:
#     150
#     6622
#     17402
#     26672
#     36750
#     46847
# 
# Disc length: 768 seconds
# 
# Revision: 1
# Processed by: cddbd v1.4b41PL1 Copyright (c) Steve Scherf et al.
# Submitted via: DiscPlay 4.0.3
# 
DISCID=3f02fe06
DTITLE=Varios - Hits of the 50s
DYEAR=1900
DGENRE=
TTITLE0=Oh! Carol
TTITLE1=Blue Monday
TTITLE2=Long Tall Sally
TTITLE3=The Green Door
TTITLE4=Never Be Anyone Else But You
TTITLE5=Come Softly To Me
EXTD=
EXTT0=
EXTT1=
EXTT2=
EXTT3=
EXTT4=
EXTT5=
PLAYORDER=
